# xmcd
#
# Track frame offsets:
#	150
#	30652
#	49544
#	60276
#	81268
#	89593
#	109693
#	118070
#	136250
#	151887
#
# Disc length: 2155 seconds
#
# Revision: 1
# Processed by: cddbd v1.5.2PL0 Copyright (c) Steve Scherf et al.
# Submitted via: audiograbber 1.83.01
#
DISCID=7708690a
DTITLE=James Cotton - Cotton In Your Ears
DYEAR=1900
DGENRE=
TTITLE0=Back To St_ Louis
TTITLE1=Motorized Blues
TTITLE2=The Mule
TTITLE3=With You On My Mind
TTITLE4=I Can't Live Without You
TTITLE5=(Please) Tell Me Partner
TTITLE6=Duke Patrol
TTITLE7=Take Me By The Hand
TTITLE8=The Coaches Better Days
TTITLE9=Take Your Hands Off Her
EXTD=
EXTT0=
EXTT1=
EXTT2=
EXTT3=
EXTT4=
EXTT5=
EXTT6=
EXTT7=
EXTT8=
EXTT9=
PLAYORDER=
